<svg width="33" height="33" viewBox="0 0 33 33" fill="none" xmlns="http://www.w3.org/2000/svg">
<path d="M30.3749 6.41211C28.9964 6.41211 27.8749 7.51595 27.8749 8.87274C27.8749 9.57679 28.1801 10.2342 28.6965 10.695L27.6638 12.8158C27.1924 12.6501 26.6917 12.5637 26.1874 12.5637C23.775 12.5637 21.8124 14.4954 21.8124 16.8698C21.8124 17.2714 21.8683 17.6637 21.9773 18.0428L21.1417 18.3644C20.8202 18.4881 20.6615 18.8449 20.7873 19.1613C20.9133 19.4787 21.2763 19.6336 21.5969 19.5102L22.4873 19.1675C23.2817 20.4034 24.6771 21.1759 26.1874 21.1759C26.3101 21.1759 26.4313 21.1696 26.5515 21.1598L26.9091 22.6847C26.1097 23.0957 25.5624 23.9193 25.5624 24.8668C25.5624 26.2236 26.6839 27.3275 28.0624 27.3275C29.4409 27.3275 30.5624 26.2236 30.5624 24.8668C30.5624 23.5314 29.4757 22.4418 28.1271 22.4078L27.7695 20.8833C29.4019 20.2577 30.5624 18.6951 30.5624 16.8698C30.5624 15.4828 29.8878 14.1972 28.769 13.3925L29.8039 11.2673C29.9908 11.3104 30.1824 11.3334 30.3749 11.3334C31.7534 11.3334 32.8749 10.2295 32.8749 8.87274C32.8749 7.51595 31.7534 6.41211 30.3749 6.41211ZM29.3124 24.8668C29.3124 25.5452 28.7516 26.0972 28.0624 26.0972C27.3731 26.0972 26.8124 25.5452 26.8124 24.8668C26.8124 24.1884 27.3731 23.6365 28.0624 23.6365C28.7516 23.6365 29.3124 24.1884 29.3124 24.8668ZM26.1874 19.9456C24.4778 19.9456 23.0624 18.5829 23.0624 16.8698C23.0624 15.1738 24.4643 13.794 26.1874 13.794C26.7053 13.794 27.2174 13.9208 27.6684 14.1605C27.6685 14.1605 27.6686 14.1606 27.6687 14.1606C28.6826 14.6991 29.3124 15.7372 29.3124 16.8698C29.3124 18.5658 27.9105 19.9456 26.1874 19.9456ZM30.3749 10.1031C29.6791 10.1031 29.1249 9.54781 29.1249 8.87274C29.1249 8.19434 29.6856 7.64242 30.3749 7.64242C31.0641 7.64242 31.6249 8.19434 31.6249 8.87274C31.6249 9.55114 31.0641 10.1031 30.3749 10.1031Z" fill="#2E1B70"/>
<path d="M21.9377 5.67321C21.9377 4.31642 20.8162 3.21258 19.4377 3.21258C18.0592 3.21258 16.9377 4.31642 16.9377 5.67321C16.9377 5.87148 16.9627 6.06907 17.0107 6.26112L14.8293 7.41712C14.0108 6.32879 12.7127 5.67321 11.3127 5.67321C10.2394 5.67321 9.21668 6.05959 8.42306 6.74783L5.62024 4.29391C5.78331 3.96732 5.87524 3.60038 5.87524 3.21258C5.87524 1.85579 4.75374 0.751953 3.37524 0.751953C1.99674 0.751953 0.875244 1.85579 0.875244 3.21258C0.875244 4.56937 1.99674 5.67321 3.37524 5.67321C3.90737 5.67321 4.40081 5.50823 4.80662 5.22821L7.61174 7.68416C7.17437 8.36767 6.93774 9.16368 6.93774 9.97932C6.93774 10.49 7.03087 10.9968 7.20881 11.4721L5.19968 12.6038C4.73324 12.1134 4.07687 11.8248 3.37524 11.8248C1.99674 11.8248 0.875244 12.9286 0.875244 14.2854C0.875244 15.6422 1.99674 16.746 3.37524 16.746C4.75374 16.746 5.87524 15.6422 5.87524 14.2854C5.87524 14.0824 5.84943 13.88 5.79924 13.6835L7.80549 12.5535C8.50049 13.471 9.53724 14.0782 10.6877 14.2411V18.7592C8.77468 19.0298 7.25806 20.5226 6.98312 22.4054H4.51774C4.25974 21.6895 3.56506 21.1751 2.75024 21.1751C1.71637 21.1751 0.875244 22.003 0.875244 23.0206C0.875244 24.0382 1.71637 24.8661 2.75024 24.8661C3.56499 24.8661 4.25974 24.3517 4.51774 23.6358H6.98349C7.07118 24.2328 7.28531 24.8057 7.61168 25.3157L4.80656 27.7717C4.40081 27.4917 3.90737 27.3268 3.37524 27.3268C1.99674 27.3268 0.875244 28.4306 0.875244 29.7874C0.875244 31.1442 1.99674 32.248 3.37524 32.248C4.75374 32.248 5.87524 31.1442 5.87524 29.7874C5.87524 29.3996 5.78331 29.0327 5.62024 28.7061L8.42306 26.2521C9.21668 26.9404 10.2394 27.3268 11.3127 27.3268C12.2699 27.3268 13.1801 27.0257 13.9329 26.4695L16.0338 28.5373C15.8083 28.9121 15.6877 29.3407 15.6877 29.7874C15.6877 31.1442 16.8092 32.248 18.1877 32.248C19.5662 32.248 20.6877 31.1442 20.6877 29.7874C20.6877 28.4306 19.5662 27.3268 18.1877 27.3268C17.7339 27.3268 17.2985 27.4454 16.9177 27.6674L14.8169 25.5996C15.3817 24.8589 15.6877 23.9628 15.6877 23.0207C15.6877 22.6191 15.6319 22.2267 15.5229 21.8477L16.3584 21.5261C16.6799 21.4024 16.8386 21.0455 16.7129 20.7291C16.5872 20.4127 16.2247 20.2566 15.9032 20.3803L15.0128 20.723C14.3294 19.6597 13.2013 18.9395 11.9377 18.7591V14.2408C14.055 13.9414 15.6877 12.1449 15.6877 9.97938C15.6877 9.47372 15.5964 8.97181 15.4218 8.50042L17.6035 7.34423C18.0706 7.84091 18.7311 8.13384 19.4377 8.13384C20.8162 8.13384 21.9377 7.03 21.9377 5.67321ZM2.12524 3.21258C2.12524 2.53419 2.68599 1.98227 3.37524 1.98227C4.06449 1.98227 4.62524 2.53419 4.62524 3.21258C4.62524 3.89098 4.06449 4.4429 3.37524 4.4429C2.68599 4.4429 2.12524 3.89098 2.12524 3.21258ZM3.37524 15.5157C2.68599 15.5157 2.12524 14.9638 2.12524 14.2854C2.12524 13.607 2.68599 13.0551 3.37524 13.0551C4.06156 13.0551 4.62524 13.6009 4.62524 14.2854C4.62524 14.9638 4.06449 15.5157 3.37524 15.5157ZM2.75024 23.6358C2.40562 23.6358 2.12524 23.3599 2.12524 23.0207C2.12524 22.6815 2.40562 22.4055 2.75024 22.4055C3.09487 22.4055 3.37524 22.6815 3.37524 23.0207C3.37524 23.3599 3.09487 23.6358 2.75024 23.6358ZM3.37524 31.0177C2.68599 31.0177 2.12524 30.4658 2.12524 29.7874C2.12524 29.109 2.68599 28.5571 3.37524 28.5571C4.06449 28.5571 4.62524 29.109 4.62524 29.7874C4.62524 30.4658 4.06449 31.0177 3.37524 31.0177ZM19.4377 29.7874C19.4377 30.4658 18.877 31.0177 18.1877 31.0177C17.4985 31.0177 16.9377 30.4658 16.9377 29.7874C16.9377 29.459 17.0679 29.1501 17.3041 28.9176C17.5402 28.6851 17.8541 28.5571 18.1877 28.5571C18.877 28.5571 19.4377 29.109 19.4377 29.7874ZM14.4377 23.0207C14.4377 24.7198 13.0394 26.0964 11.3127 26.0964C9.58131 26.0964 8.18774 24.7134 8.18774 23.0207C8.18774 21.3247 9.58962 19.9449 11.3127 19.9449C13.0218 19.9449 14.4377 21.307 14.4377 23.0207ZM11.3127 13.0551C9.59499 13.0551 8.18774 11.6861 8.18774 9.97932C8.18774 8.2888 9.57918 6.90353 11.3127 6.90353C13.0218 6.90353 14.4377 8.26592 14.4377 9.97932C14.4377 11.6753 13.0359 13.0551 11.3127 13.0551ZM18.1877 5.67321C18.1877 4.99482 18.7485 4.4429 19.4377 4.4429C20.127 4.4429 20.6877 4.99482 20.6877 5.67321C20.6877 6.35161 20.127 6.90353 19.4377 6.90353C18.7514 6.90353 18.1877 6.35776 18.1877 5.67321Z" fill="#2E1B70"/>
</svg>
