<svg width="33" height="33" viewBox="0 0 33 33" fill="none" xmlns="http://www.w3.org/2000/svg">
<path d="M30.4928 3.59981H17.3788L16.3258 2.54681C16.0962 2.31731 15.7903 2.19088 15.4644 2.19088C15.1386 2.19088 14.8327 2.31731 14.6023 2.54769L14.5049 2.64538C14.0887 2.4215 13.6536 2.24113 13.2033 2.10581V1.96731C13.2033 1.29606 12.6572 0.75 11.9859 0.75H10.3243C9.65312 0.75 9.107 1.29606 9.107 1.96731V2.10581C8.65675 2.24113 8.2215 2.42156 7.80538 2.64538L7.70725 2.54681C7.47769 2.31725 7.17181 2.19081 6.84587 2.19081C6.52 2.19081 6.21412 2.31725 5.98456 2.54675L4.93162 3.59981H1.75725C0.85725 3.59981 0.125 4.33206 0.125 5.23206V23.6502C0.125 24.5502 0.85725 25.2824 1.75725 25.2824H10.8549L9.59519 27.8363H8.57044C7.35356 27.8363 6.36356 28.8263 6.36356 30.0431V31.625C6.36356 31.9702 6.64344 32.25 6.98856 32.25H22.5019H29.7C31.0372 32.25 32.125 31.0492 32.125 29.5732V14.6344V5.23206C32.125 4.33206 31.3927 3.59981 30.4928 3.59981ZM5.45962 7.60588C5.60656 6.955 5.86194 6.33919 6.21863 5.77556C6.37475 5.52894 6.33938 5.20706 6.13344 5.00025L5.717 4.58219L6.84587 3.45331L7.26044 3.86963C7.46719 4.07713 7.79019 4.11331 8.03762 3.95669C8.60437 3.59794 9.22038 3.34269 9.86831 3.198C10.1539 3.13419 10.3571 2.88069 10.3571 2.588V2H11.9533V2.588C11.9533 2.88069 12.1564 3.13419 12.4421 3.198C13.09 3.34269 13.7059 3.59794 14.2727 3.95669C14.5202 4.11331 14.8432 4.07713 15.0498 3.86963L15.4645 3.45331L16.5934 4.58219L16.1769 5.00025C15.9709 5.20706 15.9356 5.52894 16.0917 5.77556C16.4484 6.33919 16.7037 6.955 16.8507 7.60588C16.915 7.89087 17.1682 8.09325 17.4604 8.09325H18.0484V9.6895H17.4604C17.1682 9.6895 16.915 9.89188 16.8507 10.1769C16.7034 10.8296 16.448 11.446 16.0917 12.0089C15.9356 12.2556 15.9709 12.5774 16.1769 12.7843L16.5924 13.2014L15.4644 14.3295L15.0489 13.914C14.8421 13.7072 14.5198 13.6715 14.2727 13.8279C13.706 14.1866 13.0901 14.4419 12.4421 14.5866C12.1564 14.6504 11.9533 14.9039 11.9533 15.1966V15.7845H10.3571V15.1966C10.3571 14.9039 10.1539 14.6504 9.86831 14.5866C9.22031 14.4419 8.60431 14.1866 8.03762 13.8279C7.79062 13.6716 7.46825 13.7073 7.26137 13.9141L6.84594 14.3295L5.71794 13.2014L6.13344 12.7843C6.33938 12.5774 6.37475 12.2556 6.21863 12.0089C5.86238 11.446 5.607 10.8296 5.45962 10.1769C5.39531 9.89188 5.14213 9.6895 4.84994 9.6895H4.262V8.09325H4.85C5.14213 8.09325 5.39531 7.89087 5.45962 7.60588ZM1.375 23.6502V22.2838H20.077V24.0325H1.75725C1.5465 24.0325 1.375 23.861 1.375 23.6502ZM12.2487 25.2825H20.0771V27.8364H10.9891L12.2487 25.2825ZM7.61363 30.0431C7.61363 29.5156 8.04288 29.0863 8.5705 29.0863H9.98069C9.98156 29.0863 9.9825 29.0864 9.98337 29.0864C9.98412 29.0864 9.98481 29.0863 9.98556 29.0863H20.077V29.5732C20.077 30.0974 20.2148 30.5866 20.4517 31H7.61356V30.0431H7.61363ZM30.875 29.5732C30.875 30.3466 30.337 31 29.7001 31H22.502C21.8651 31 21.327 30.3466 21.327 29.5732V14.6344C21.327 13.861 21.8651 13.2076 22.502 13.2076H23.1449V14.6131C23.1449 15.2971 23.7021 15.8535 24.3871 15.8535H27.8149C28.4999 15.8535 29.0571 15.2971 29.0571 14.6131V13.2076H29.7001C30.3369 13.2076 30.875 13.861 30.875 14.6344V29.5732ZM24.3949 14.6035V13.2077H27.8071V14.6035H24.3949ZM30.875 12.2939C30.5267 12.08 30.1261 11.9577 29.7001 11.9577H22.502C21.1648 11.9577 20.077 13.1585 20.077 14.6345V21.0338H1.375V5.23206C1.375 5.02487 1.55006 4.84981 1.75725 4.84981H4.48556C4.534 5.06744 4.64125 5.27419 4.80969 5.44256L4.90844 5.54169C4.68525 5.95675 4.50469 6.392 4.36856 6.84325H4.23106C3.55887 6.84325 3.012 7.39013 3.012 8.06231V9.72219C3.012 10.3934 3.55887 10.9395 4.23106 10.9395H4.3685C4.50475 11.3918 4.68531 11.8276 4.9085 12.2428L4.81063 12.3411C4.33619 12.8156 4.33619 13.5876 4.81063 14.0619L5.98456 15.2359C6.45962 15.7109 7.23238 15.7109 7.70725 15.2359L7.8045 15.1387C8.22087 15.3627 8.6565 15.5433 9.10706 15.6788V15.8173C9.10706 16.4884 9.65312 17.0346 10.3244 17.0346H11.986C12.6573 17.0346 13.2034 16.4885 13.2034 15.8173V15.6788C13.6539 15.5433 14.0895 15.3628 14.5059 15.1387L14.6032 15.236C15.0781 15.7108 15.8508 15.7109 16.3259 15.236L17.4998 14.0621C17.9743 13.5876 17.9742 12.8156 17.5007 12.342L17.4019 12.2428C17.625 11.8276 17.8056 11.3918 17.9419 10.9396H18.0793C18.7516 10.9396 19.2984 10.3935 19.2984 9.72225V8.06238C19.2984 7.39019 18.7516 6.84331 18.0793 6.84331H17.9418C17.8057 6.39206 17.6252 5.95681 17.4019 5.54175L17.4998 5.4435C17.6686 5.27475 17.7761 5.06769 17.8246 4.84981H30.4928C30.7 4.84981 30.8751 5.02487 30.8751 5.23206V12.2939H30.875Z" fill="#2E1B70"/>
<path d="M11.1539 13.2459C13.5559 13.2459 15.5101 11.2925 15.5101 8.89148C15.5101 6.49048 13.5559 4.53711 11.1539 4.53711C8.75293 4.53711 6.79956 6.49048 6.79956 8.89148C6.79956 11.2925 8.75293 13.2459 11.1539 13.2459ZM11.1539 5.78711C12.8666 5.78711 14.2601 7.17973 14.2601 8.89148C14.2601 10.6032 12.8666 11.9959 11.1539 11.9959C9.44218 11.9959 8.04956 10.6032 8.04956 8.89148C8.04956 7.17973 9.44218 5.78711 11.1539 5.78711Z" fill="#2E1B70"/>
</svg>
