<svg width="33" height="33" viewBox="0 0 33 33" fill="none" xmlns="http://www.w3.org/2000/svg">
<path d="M29.9808 8.50494C27.8445 4.80463 24.395 2.15782 20.2679 1.05194C16.1409 -0.0539336 11.8302 0.513629 8.12985 2.64994C4.4296 4.78625 1.78273 8.23575 0.676914 12.3628C-0.428899 16.4899 0.138601 20.8007 2.27491 24.5009C4.19123 27.8201 7.23697 30.3427 10.8511 31.6038C12.5643 32.2016 14.3527 32.4999 16.1384 32.4999C18.08 32.4999 20.018 32.147 21.85 31.4429C22.1722 31.3191 22.3329 30.9576 22.209 30.6354C22.0852 30.3132 21.7235 30.1523 21.4015 30.2763C16.5252 32.1505 11.2463 31.2989 7.30241 28.3386L7.86235 25.4158L8.13216 25.3281C9.15172 24.9969 9.71172 23.8979 9.3806 22.8783L9.1826 22.2689C9.13679 22.1279 9.13704 21.9789 9.18322 21.838C9.35691 21.3085 9.29485 20.7292 9.01291 20.2484C8.73097 19.7678 8.25566 19.4307 7.70872 19.3238L6.2981 19.0481L3.57635 16.9788C3.41329 16.8548 3.19985 16.8186 3.00498 16.8818L1.41148 17.3994C1.37766 16.8295 1.37716 16.2598 1.40929 15.693C1.47216 15.7516 1.5131 15.7914 1.53829 15.8175C1.56948 15.8694 1.6081 15.9171 1.65335 15.9583C1.78348 16.0768 1.90135 16.1306 2.14885 16.1306C2.37629 16.1305 2.71298 16.0852 3.26891 16.0031C3.79616 15.9251 4.32066 15.8373 4.32585 15.8364C4.53604 15.8013 4.71373 15.6613 4.79735 15.4653C4.88098 15.2693 4.85891 15.0443 4.73885 14.8681L3.97254 13.7441L5.07016 12.9593C5.14329 12.9069 5.20429 12.8395 5.24897 12.7615L6.95041 9.79119L7.63622 9.05632C8.33704 8.30519 8.53704 7.20625 8.14566 6.2565C7.91479 5.69632 7.51154 5.22994 7.00716 4.91563C7.55341 4.48619 8.13585 4.08969 8.75485 3.73238C11.026 2.42113 13.5045 1.78569 15.9569 1.76138L14.8409 3.16132L10.7025 4.61213C10.5344 4.671 10.3994 4.79888 10.3315 4.9635L9.17579 7.76525C9.09372 7.96432 9.11979 8.19144 9.24485 8.36669L10.9328 10.7312C10.6911 10.9518 10.4558 11.273 10.1747 11.6719C10.0515 11.8468 9.9351 12.012 9.85466 12.1046C9.78472 12.1853 9.71472 12.264 9.64535 12.342C9.28229 12.7504 8.90691 13.1729 8.64022 13.7371C8.05385 14.9783 8.17229 16.4209 8.94929 17.5021C9.7006 18.5474 10.9392 19.0788 12.2612 18.9233C12.4766 18.898 12.6774 18.8483 12.8717 18.8002C13.4075 18.6676 13.5773 18.6544 13.7492 18.8153C13.8328 18.8936 13.8405 18.9084 13.8388 19.1739C13.8376 19.3429 13.8363 19.5532 13.8945 19.7933C13.9878 20.1773 14.229 20.4428 14.4228 20.656C14.5191 20.7619 14.6187 20.8716 14.6494 20.9451C14.8443 21.4123 14.7595 21.6709 14.5735 22.2378C14.5575 22.2863 14.5413 22.3358 14.525 22.3866C14.2424 23.2613 14.6363 24.1289 14.9838 24.8943C15.0967 25.1428 15.2032 25.3774 15.273 25.5848C15.835 27.2523 16.2562 27.6341 16.5943 27.7879C16.7713 27.8684 16.9546 27.9037 17.1397 27.9036C18.0407 27.9036 18.9808 27.0671 19.4127 26.5368C19.6839 26.2038 19.7507 25.8703 19.7995 25.6268C19.8238 25.5056 19.8429 25.41 19.8794 25.3475C19.9353 25.2519 20.0011 25.1778 20.0844 25.0839C20.252 24.8952 20.4605 24.6604 20.5956 24.2349C20.6982 23.9116 20.7728 23.8324 21.0197 23.5694C21.0627 23.5237 21.1085 23.4748 21.1577 23.4213C21.9902 22.5155 21.7758 21.8236 21.5487 21.0909C21.3577 20.4745 21.6918 20.0803 22.4998 19.3278C22.8501 19.0016 23.2122 18.6644 23.4922 18.2591C23.6147 18.0818 23.9873 17.5422 23.7567 17.0074C23.5307 16.483 22.9561 16.3949 22.4945 16.3241C22.3122 16.2961 22.0367 16.2539 21.949 16.1966C21.5623 15.9438 21.3257 15.4161 21.0969 14.9058C21.0513 14.8043 21.0064 14.704 20.9608 14.6067C20.8796 14.4331 20.7984 14.223 20.7125 14.0006C20.4851 13.4121 20.2274 12.7451 19.7887 12.2801C19.3944 11.8623 18.6511 11.661 17.9953 11.4834C17.7747 11.4237 17.5665 11.3673 17.4292 11.3166C17.3142 11.2741 17.1893 11.2664 17.0702 11.2944C16.751 11.3693 16.5518 11.4517 16.404 11.5702C16.3649 11.6015 16.2492 11.7043 16.1815 11.8696C15.9527 11.7598 15.638 11.5501 15.4444 11.421C15.4404 11.4183 15.4363 11.4156 15.4323 11.4129C15.4976 11.1518 15.4385 10.9423 15.3767 10.8114C15.0275 10.0729 13.8686 10.1307 13.64 10.1501C13.5101 10.161 13.3458 10.1668 13.172 10.1729C12.899 10.1826 12.5972 10.1935 12.2987 10.227L12.314 10.1841C12.5407 9.55269 13.1437 9.12844 13.8145 9.12844H14.1698C14.5149 9.12844 14.7948 8.84857 14.7948 8.5035C14.7948 8.15844 14.5149 7.87857 14.1698 7.87857H13.8145C12.8185 7.87857 11.9065 8.40275 11.3953 9.22782L10.4631 7.922L11.3802 5.69894L15.4242 4.28119C15.535 4.24232 15.6328 4.17294 15.7061 4.081L17.5038 1.82607C22.0972 2.263 26.4209 4.83838 28.8985 9.12975C29.5585 10.2728 30.0467 11.4762 30.3712 12.707L30.1063 12.9433C29.7605 13.2518 29.5578 13.6944 29.5501 14.1576C29.55 14.1626 29.5499 14.1676 29.5497 14.1726L29.1181 12.9856C29.0538 12.8085 28.959 12.6461 28.8367 12.5029L28.0667 11.6014C27.7682 11.252 27.3336 11.0517 26.8742 11.0517H25.9317C25.5972 11.0517 25.2914 11.2349 25.1336 11.5298C24.9758 11.8246 24.993 12.1808 25.1786 12.459L25.274 12.6022C24.665 13.1259 23.9606 13.5449 23.2106 13.8276L21.9187 11.353V10.8009C21.9187 10.6302 21.8488 10.4668 21.7253 10.3489L20.562 9.23838C20.4978 9.17713 20.4213 9.13025 20.3376 9.10082L19.2904 8.73282C18.9646 8.61819 18.608 8.78963 18.4936 9.11519C18.3792 9.44088 18.5503 9.79757 18.876 9.912L19.7962 10.2354L20.6688 11.0684V11.5064C20.6688 11.6071 20.6932 11.7063 20.7398 11.7956L22.3572 14.8936C22.5026 15.1723 22.8327 15.2997 23.1273 15.1907L23.5983 15.0171C24.6923 14.6136 25.7064 13.9645 26.5309 13.1401C26.7415 12.9294 26.7743 12.5995 26.609 12.3516L26.5757 12.3016H26.8742C26.9675 12.3016 27.0558 12.3423 27.1164 12.4133L27.8863 13.3148C27.9112 13.3438 27.9303 13.3767 27.9435 13.4128L28.7932 15.7492C28.8662 15.9499 29.0367 16.0994 29.245 16.1457C29.29 16.1556 29.3353 16.1605 29.3804 16.1605C29.5443 16.1605 29.7039 16.0959 29.8223 15.9774L30.2267 15.573C30.4828 15.3168 30.6592 14.9927 30.7434 14.6334C31.3689 19.6462 29.4033 24.8317 25.2487 28.0926C24.9772 28.3056 24.9298 28.6984 25.143 28.97C25.356 29.2416 25.7488 29.2889 26.0204 29.0758C29.0199 26.7216 31.0805 23.3544 31.8227 19.5944C32.5718 15.7983 31.9178 11.8598 29.9808 8.50494ZM3.0801 18.1716L5.65716 20.1311C5.73335 20.189 5.82172 20.2286 5.9156 20.2469L7.46885 20.5504C7.6671 20.5892 7.83247 20.7064 7.93466 20.8807C8.03685 21.0549 8.05835 21.2564 7.99547 21.4484C7.8661 21.8429 7.86547 22.2603 7.99379 22.6551L8.19179 23.2643C8.3101 23.6284 8.10997 24.021 7.74591 24.1393L7.12485 24.3411C6.90816 24.4115 6.74704 24.5943 6.70422 24.8179L6.20435 27.4272C5.10541 26.4214 4.14054 25.2326 3.35735 23.8761C2.40185 22.2213 1.80485 20.4562 1.54173 18.6714L3.0801 18.1716ZM6.72241 8.20357L5.98722 8.99125C5.95441 9.02644 5.92572 9.06532 5.90179 9.10707L4.23229 12.0218L2.74848 13.0828C2.4721 13.2804 2.40423 13.6625 2.5956 13.9433L3.15054 14.7573C2.83066 14.8049 2.5436 14.8441 2.35273 14.8649C2.31604 14.8298 2.27766 14.7941 2.23798 14.7572C2.08941 14.6192 1.88298 14.4349 1.57523 14.1656C2.08279 11.0241 3.59654 8.06463 5.97729 5.80557C6.43316 5.94913 6.80729 6.28919 6.99004 6.73275C7.19566 7.23163 7.09054 7.809 6.72241 8.20357ZM11.818 11.6188C12.0968 11.4619 12.7438 11.4389 13.2162 11.4222C13.4055 11.4155 13.5843 11.4091 13.7441 11.3958C13.8284 11.3887 13.922 11.39 14.0103 11.3969C13.9709 11.4981 13.9581 11.6093 13.9752 11.7195C14.0053 11.9134 14.1248 12.0819 14.2978 12.1744C14.4151 12.2372 14.5783 12.346 14.751 12.4612C15.2395 12.7868 15.7932 13.1559 16.3133 13.189C16.7863 13.2197 17.0495 12.9501 17.1622 12.8353C17.1712 12.8262 17.1797 12.8171 17.1887 12.8088C17.2522 12.757 17.3117 12.6876 17.356 12.6039C17.4559 12.6325 17.5609 12.6609 17.6685 12.6901C18.0386 12.7903 18.7274 12.9768 18.8796 13.1381C19.1499 13.4246 19.3606 13.9701 19.5465 14.4513C19.6405 14.6944 19.7292 14.9239 19.8288 15.1368C19.8715 15.2281 19.9136 15.3221 19.9563 15.4174C20.2447 16.0606 20.5716 16.7898 21.265 17.243C21.5795 17.4486 21.9649 17.5076 22.305 17.5598C22.3462 17.5661 22.3933 17.5734 22.4412 17.5813C22.2393 17.8629 21.9518 18.1305 21.6482 18.4133C20.8745 19.1338 19.9116 20.0306 20.355 21.4611C20.5643 22.1366 20.5741 22.2096 20.2375 22.5758C20.1917 22.6257 20.1489 22.6712 20.1088 22.7138C19.8206 23.0207 19.5929 23.2631 19.4044 23.8568C19.3497 24.0293 19.2787 24.1091 19.1499 24.2541C19.0469 24.3701 18.9186 24.5146 18.8003 24.7171C18.6585 24.9598 18.6117 25.1934 18.5741 25.3811C18.537 25.5658 18.516 25.6584 18.4435 25.7474C18.2785 25.9501 17.9706 26.2443 17.6545 26.4451C17.3608 26.6316 17.1893 26.6571 17.1308 26.6536C17.0642 26.5821 16.8226 26.2691 16.4576 25.1858C16.3676 24.9185 16.2427 24.6435 16.122 24.3776C15.8558 23.7913 15.5806 23.1851 15.7145 22.7708C15.7303 22.7219 15.7459 22.6741 15.7613 22.6274C15.9752 21.9756 16.177 21.36 15.803 20.4638C15.6892 20.1908 15.5078 19.9914 15.348 19.8154C15.2446 19.7016 15.1274 19.5726 15.1093 19.4983C15.0873 19.4078 15.088 19.3032 15.0888 19.1821C15.091 18.8556 15.0942 18.3621 14.6037 17.9028C13.912 17.2554 13.1055 17.4548 12.5718 17.5868C12.4078 17.6273 12.253 17.6657 12.1157 17.6818C11.2377 17.7847 10.4538 17.4534 9.96447 16.7724C9.45254 16.0601 9.37822 15.1016 9.7706 14.2709C9.96054 13.869 10.2475 13.5461 10.5797 13.1723C10.6523 13.0906 10.7255 13.0083 10.7988 12.9239C10.9207 12.7834 11.0548 12.5931 11.1966 12.3917C11.3659 12.1514 11.6812 11.7039 11.818 11.6188Z" fill="#2E1B70"/>
<path d="M25.751 22.0178L25.4504 20.8845C25.3847 20.637 25.1747 20.4546 24.9205 20.4242C24.666 20.3945 24.4192 20.5217 24.297 20.7468C24.2285 20.873 24.1668 21.0068 24.1072 21.1361C24.0069 21.3536 23.9031 21.5786 23.7952 21.7028C23.7345 21.7726 23.5788 21.8478 23.4283 21.9204C23.0685 22.094 22.5757 22.3318 22.3874 22.9319C22.2705 23.3042 22.3142 23.5987 22.346 23.8137C22.3736 24.0001 22.38 24.0648 22.33 24.182L22.3238 24.1966C22.1249 24.6634 21.7547 25.5324 22.2737 26.2713C22.644 26.7985 23.0334 26.9341 23.336 26.9341C23.395 26.9343 23.4509 26.9291 23.5026 26.9206C24.1401 26.8164 24.6194 26.1533 25.011 24.8336L25.7461 22.356C25.7788 22.2458 25.7805 22.1288 25.751 22.0178ZM23.8128 24.478C23.6132 25.1509 23.4365 25.465 23.3346 25.6043C23.3229 25.5893 23.3101 25.5723 23.2965 25.5528C23.177 25.3827 23.3555 24.9637 23.4737 24.6864L23.48 24.6718C23.6705 24.2246 23.6195 23.8813 23.5825 23.6305C23.5587 23.4699 23.5502 23.4009 23.58 23.3061C23.6045 23.2282 23.7509 23.1526 23.9715 23.0461C24.0693 22.9988 24.177 22.9469 24.2857 22.884L23.8128 24.478Z" fill="#2E1B70"/>
</svg>
