<svg width="51" height="57" viewBox="0 0 51 57" fill="none" xmlns="http://www.w3.org/2000/svg">
<path fill-rule="evenodd" clip-rule="evenodd" d="M50.1876 23.2019C50.8864 22.2193 50.8864 20.9986 50.1873 20.0162L48.8086 18.0783C48.627 17.8229 48.5567 17.5196 48.611 17.2244L49.022 14.9864C49.2315 13.8458 48.6848 12.7155 47.5955 12.0363L45.4587 10.7041C45.1762 10.5279 44.9754 10.2708 44.8932 9.97982L44.2709 7.77563C43.955 6.656 42.9472 5.79232 41.641 5.52134L39.0692 4.98786C38.7297 4.91739 38.4296 4.74527 38.2242 4.50313L36.6697 2.67123C35.8774 1.73763 34.5585 1.26882 33.2282 1.44851L30.6161 1.80075C30.2716 1.84717 29.9177 1.78706 29.62 1.63142L27.3586 0.449335C26.2122 -0.149834 24.7881 -0.149723 23.6417 0.449335L21.3806 1.63109C21.0829 1.78683 20.7292 1.84673 20.3844 1.80042L17.7731 1.44817C16.4428 1.26871 15.1238 1.73729 14.3315 2.67089L12.7772 4.50235C12.5716 4.74449 12.2716 4.91661 11.9319 4.98708L9.36023 5.52045C8.0542 5.7912 7.04627 6.655 6.73012 7.77452L6.10769 9.97882C6.02547 10.2698 5.8248 10.5271 5.54216 10.7031L3.40484 12.0355C2.3156 12.7145 1.76903 13.8447 1.97828 14.9853L2.38925 17.2242C2.44341 17.5195 2.37327 17.8228 2.19169 18.078L0.812658 20.0163C0.113858 20.9989 0.113858 22.2195 0.812788 23.2019L2.19156 25.14C2.37314 25.3953 2.44341 25.6986 2.38912 25.9938L1.97815 28.232C1.76864 29.3724 2.31534 30.5029 3.40458 31.182L5.54138 32.5141C5.82389 32.6901 6.0247 32.9474 6.10692 33.2384L6.72921 35.4426C7.0451 36.5622 8.05291 37.4259 9.35907 37.6969L10.433 37.9197L3.1652 51.815C3.01076 52.1103 3.0535 52.4539 3.27729 52.7146C3.50096 52.9754 3.87075 53.1129 4.24587 53.0743L10.0937 52.4751L13.4625 56.6155C13.6597 56.8576 13.9814 56.9999 14.3218 56.9999C14.3544 56.9999 14.3874 56.9986 14.4202 56.996C14.7961 56.9657 15.124 56.7643 15.2785 56.4692L22.701 42.2772L23.6415 42.7687C24.2147 43.0683 24.8572 43.218 25.4999 43.218C26.1426 43.218 26.7852 43.0682 27.3584 42.7687L28.3328 42.2595L35.7646 56.4692C35.9191 56.7645 36.2469 56.9657 36.6229 56.996C36.6375 56.9972 36.652 56.9981 36.6666 56.9988C36.6848 56.9996 36.7031 57 36.7213 57C37.0617 57 37.3836 56.8577 37.5806 56.6156L40.9494 52.4752L46.7972 53.0745C47.1721 53.1126 47.5421 52.9755 47.7658 52.7147C47.9895 52.454 48.0325 52.1105 47.8779 51.8151L40.6063 37.9121L41.6399 37.6978C42.9459 37.427 43.9538 36.5632 44.27 35.4437L44.8924 33.2394C44.9746 32.9484 45.1754 32.6911 45.4579 32.5151L47.5953 31.1827C48.6845 30.5037 49.2311 29.3735 49.0218 28.233L48.6109 25.9941C48.5567 25.6987 48.6268 25.3955 48.8084 25.1403L50.1876 23.2019ZM14.123 54.2867L11.4533 51.0054C11.2319 50.7333 10.8534 50.5877 10.4692 50.6273L5.83493 51.1023L12.4565 38.4417C12.5776 38.5179 12.6862 38.6093 12.7757 38.715L14.3302 40.5469C14.4778 40.7209 14.6438 40.8787 14.8248 41.0192L11.3395 47.6829C11.1028 48.1357 11.339 48.6671 11.8671 48.87C12.0063 48.9236 12.1519 48.9488 12.2951 48.9488C12.6954 48.9488 13.0778 48.7511 13.252 48.4178L16.7249 41.7777C17.0667 41.8179 17.4185 41.8173 17.7717 41.7696L20.3837 41.4174C20.5401 41.3963 20.6982 41.3982 20.8521 41.42L14.123 54.2867ZM45.2084 51.1021L40.574 50.6273C40.1894 50.5878 39.8113 50.7333 39.59 51.0054L36.9202 54.2867L30.1883 41.415C30.3294 41.3986 30.4735 41.3986 30.616 41.4177L33.2271 41.77C33.5946 41.8195 33.9607 41.8179 34.3155 41.7726L37.791 48.418C37.9655 48.7515 38.3476 48.9491 38.7479 48.9491C38.8912 48.9491 39.0368 48.9238 39.1759 48.8703C39.704 48.6674 39.9403 48.1358 39.7035 47.6832L36.2049 40.994C36.3737 40.8597 36.5297 40.7111 36.6688 40.5472L38.223 38.7158C38.321 38.6003 38.441 38.5014 38.5758 38.4213L45.2084 51.1021ZM48.3978 22.2666L47.0188 24.2049C46.5791 24.8232 46.409 25.5578 46.5403 26.2732L46.9513 28.512C47.0377 28.9828 46.8119 29.4494 46.3624 29.7297L44.2249 31.0622C43.5408 31.4888 43.0542 32.1119 42.8552 32.8167L42.2328 35.021C42.1023 35.4831 41.6864 35.8397 41.1471 35.9516L38.5753 36.485C37.7528 36.6555 37.0257 37.0726 36.528 37.659L34.9737 39.4905C34.6467 39.876 34.1024 40.0693 33.5529 39.9952L30.9416 39.6429C30.1068 39.5304 29.2497 39.676 28.5281 40.053L26.2672 41.2348C25.794 41.4819 25.2059 41.4819 24.7329 41.2348L22.4714 40.0529C21.909 39.7589 21.2643 39.6057 20.6118 39.6057C20.4274 39.6057 20.242 39.618 20.0582 39.6428L17.4461 39.995C16.8966 40.0692 16.3524 39.8756 16.0253 39.4903L14.4707 37.6584C13.973 37.072 13.246 36.655 12.4237 36.4844L9.85186 35.9509C9.31269 35.839 8.89666 35.4826 8.76612 35.0203L8.14383 32.8162C7.94484 32.1112 7.45841 31.4879 6.77402 31.0613L4.63736 29.729C4.18768 29.4487 3.96207 28.982 4.04857 28.5112L4.45954 26.2731C4.59086 25.5575 4.42096 24.823 3.98103 24.2046L2.60226 22.2665C2.31378 21.8609 2.31378 21.3569 2.60226 20.9514L3.98129 19.0131C4.42109 18.3948 4.59112 17.6602 4.4598 16.9449L4.04883 14.706C3.96246 14.2352 4.1882 13.7687 4.63775 13.4883L6.77519 12.1558C7.45931 11.7292 7.94588 11.1061 8.14487 10.4013L8.76729 8.19701C8.89783 7.73488 9.31373 7.3783 9.85303 7.26641L12.4248 6.73304C13.2473 6.56248 13.9744 6.14545 14.472 5.55897L16.0262 3.72751C16.3533 3.34209 16.8975 3.14849 17.4471 3.22275L20.0584 3.57499C20.8933 3.68776 21.7504 3.54192 22.4718 3.16486L24.7328 1.98311C25.206 1.73596 25.7941 1.73596 26.267 1.98311L28.5285 3.16497C29.2499 3.54215 30.1072 3.68788 30.9417 3.57521L33.5539 3.22297C34.1031 3.14916 34.6476 3.34242 34.9746 3.72773L36.5293 5.55964C37.027 6.14601 37.754 6.56304 38.5763 6.7336L41.1481 7.26708C41.6873 7.37897 42.1033 7.73544 42.2339 8.19767L42.8562 10.4019C43.0551 11.1068 43.5416 11.7301 44.226 12.1567L46.3627 13.4889C46.8124 13.7692 47.038 14.2359 46.9515 14.7067L46.5406 16.9449C46.4093 17.6604 46.5791 18.3949 47.0191 19.0133L48.3978 20.9514C48.6865 21.357 48.6865 21.861 48.3978 22.2666ZM33.9889 7.10148C26.6739 3.9333 17.8621 5.14466 12.0625 10.1157C5.32189 15.893 4.64725 25.1049 10.4933 31.5435C10.6999 31.7711 11.0088 31.8902 11.3211 31.8902C11.546 31.8902 11.7727 31.8284 11.964 31.7007C12.4208 31.396 12.5029 30.8317 12.1475 30.4401C6.94952 24.7154 7.55026 16.5239 13.5447 11.3859C18.7026 6.96488 26.5385 5.88744 33.0439 8.70483C33.5603 8.92882 34.1908 8.75092 34.4519 8.30817C34.7128 7.86541 34.5058 7.32514 33.9889 7.10148ZM42.3579 14.2767C42.0968 13.834 41.4668 13.6563 40.9498 13.8798C40.4332 14.1035 40.2258 14.6437 40.4868 15.0866C43.7715 20.6615 42.5138 27.3768 37.3571 31.7966C31.3625 36.9344 21.8054 37.4492 15.1263 32.9941C14.6693 32.6895 14.011 32.7599 13.6555 33.1513C13.3 33.5429 13.3823 34.1072 13.8391 34.4119C17.2609 36.6943 21.3538 37.817 25.4337 37.817C30.3106 37.817 35.1691 36.2126 38.8394 33.0668C44.6377 28.0971 46.0517 20.5459 42.3579 14.2767ZM38.8399 10.1177C39.1183 10.3561 39.3911 10.6048 39.6507 10.8567C40.034 11.2284 39.9932 11.7961 39.5594 12.1245C39.36 12.2754 39.1124 12.3497 38.8658 12.3497C38.5758 12.3497 38.2871 12.2472 38.0801 12.0463C37.8488 11.822 37.6056 11.6006 37.3578 11.3879C37.1097 11.1754 36.8512 10.967 36.5895 10.7688C36.1558 10.4403 36.115 9.87263 36.4986 9.50102C36.8816 9.12929 37.544 9.09411 37.9777 9.42275C38.2716 9.6453 38.5616 9.87909 38.8399 10.1177ZM36.1861 17.7021C36.9286 17.7776 37.5332 18.2031 37.7641 18.8125C37.9951 19.4219 37.7977 20.0708 37.2488 20.5057L32.5864 24.2013L33.824 29.5398C33.9697 30.1682 33.6845 30.7927 33.0796 31.1693C32.4747 31.5459 31.6939 31.5854 31.0415 31.2724L25.5002 28.614L19.9589 31.2724C19.6665 31.4127 19.3483 31.4821 19.0315 31.4821C18.6418 31.4821 18.2546 31.3769 17.9209 31.1692C17.3161 30.7927 17.0308 30.1684 17.1764 29.5398L18.414 24.2012L13.7516 20.5056C13.203 20.0707 13.0056 19.4217 13.2365 18.8126C13.4673 18.2032 14.0721 17.7777 14.8145 17.7023L21.1207 17.0613L23.7806 12.1188C24.0938 11.537 24.7528 11.1755 25.5003 11.1755C26.248 11.1755 26.9069 11.537 27.2201 12.1188L29.8799 17.0612L36.1861 17.7021ZM30.4164 24.0582C30.3454 23.7518 30.4652 23.4358 30.7328 23.2237L35.5038 19.4419L29.0504 18.786C28.6884 18.7493 28.3749 18.5539 28.2221 18.2704L25.5003 13.2126L22.7785 18.2704C22.6258 18.5539 22.3121 18.7493 21.9502 18.786L15.4966 19.4419L20.2676 23.2237C20.5353 23.4358 20.6552 23.7517 20.584 24.0582L19.3176 29.5212L24.9883 26.8007C25.1474 26.7243 25.3237 26.6862 25.5002 26.6862C25.6767 26.6862 25.8531 26.7244 26.0121 26.8007L31.6828 29.5212L30.4164 24.0582Z" fill="#00A7FF"/>
</svg>
