<svg width="37" height="39" viewBox="0 0 37 39" fill="none" xmlns="http://www.w3.org/2000/svg">
<path fill-rule="evenodd" clip-rule="evenodd" d="M30.8379 8.11605L23.1231 0.401182C23.0634 0.341483 22.9925 0.294128 22.9145 0.261821C22.8365 0.229514 22.7529 0.212888 22.6684 0.212891H3.38128C2.52902 0.213848 1.71195 0.552828 1.10932 1.15546C0.506685 1.75809 0.167705 2.57517 0.166748 3.42742V35.5727C0.167705 36.425 0.506685 37.242 1.10932 37.8447C1.71195 38.4473 2.52902 38.7863 3.38128 38.7872H27.8117C28.6639 38.7863 29.481 38.4473 30.0836 37.8447C30.6863 37.242 31.0253 36.425 31.0262 35.5727V29.1626L34.3187 25.8701L35.2278 24.9608C35.8017 24.3856 36.1365 23.6145 36.1648 22.8025C36.1931 21.9905 35.9129 21.1979 35.3805 20.5842C34.8482 19.9704 34.1031 19.581 33.2953 19.4943C32.4874 19.4076 31.6767 19.63 31.0262 20.1168V8.57066C31.0262 8.48624 31.0096 8.40263 30.9773 8.32463C30.945 8.24663 30.8976 8.17575 30.8379 8.11605ZM23.2846 2.38109L28.8313 7.92776H25.2133C24.702 7.92718 24.2117 7.7238 23.8501 7.36222C23.4886 7.00064 23.2852 6.51039 23.2846 5.99904V2.38109ZM3.38128 37.5014C2.86993 37.5008 2.3797 37.2974 2.01813 36.9359C1.65655 36.5743 1.45315 36.084 1.45256 35.5727V3.42742C1.45315 2.91607 1.65655 2.42584 2.01813 2.06427C2.3797 1.70269 2.86993 1.4993 3.38128 1.4987H21.9988V5.99904C21.9997 6.85129 22.3387 7.66837 22.9413 8.271C23.544 8.87363 24.3611 9.21261 25.2133 9.21357H29.7404V21.3565L18.8623 32.2345C18.7917 32.3051 18.7387 32.3912 18.7074 32.486H18.7069L17.035 37.5014H3.38128ZM19.5978 33.8793L21.7635 36.045L18.515 37.1278L19.5978 33.8793ZM29.7404 35.5727C29.7398 36.084 29.5364 36.5743 29.1748 36.9359C28.8133 37.2974 28.323 37.5008 27.8117 37.5014H21.4603L23.157 36.9359V36.9353C23.2517 36.9039 23.3378 36.851 23.4084 36.7806L29.7404 30.4484V35.5727ZM31.5911 21.3243C31.9528 20.9626 32.4434 20.7594 32.9549 20.7594C33.4664 20.7594 33.957 20.9626 34.3187 21.3243C34.6805 21.686 34.8837 22.1765 34.8837 22.6881C34.8837 23.1996 34.6805 23.6902 34.3188 24.0519L33.8641 24.5065L31.1366 21.7789L31.5911 21.3243ZM32.9549 25.4154L22.9537 35.4168L20.226 32.6891L30.2273 22.6878L32.9549 25.4154ZM10.4265 12.4282C10.4265 12.5988 10.4943 12.7623 10.6148 12.8829C10.7354 13.0034 10.8989 13.0712 11.0694 13.0712H26.4992C26.6697 13.0712 26.8332 13.0034 26.9538 12.8829C27.0743 12.7623 27.1421 12.5988 27.1421 12.4282C27.1421 12.2577 27.0743 12.0942 26.9538 11.9736C26.8332 11.8531 26.6697 11.7853 26.4992 11.7853H11.0694C10.8989 11.7853 10.7354 11.8531 10.6148 11.9736C10.4943 12.0942 10.4265 12.2577 10.4265 12.4282ZM17.4985 16.9282H4.64035C4.46984 16.9282 4.30632 16.8605 4.18575 16.7399C4.06518 16.6194 3.99745 16.4558 3.99745 16.2853C3.99745 16.1148 4.06518 15.9513 4.18575 15.8307C4.30632 15.7101 4.46984 15.6424 4.64035 15.6424H17.4985C17.669 15.6424 17.8325 15.7101 17.9531 15.8307C18.0736 15.9513 18.1414 16.1148 18.1414 16.2853C18.1414 16.4558 18.0736 16.6194 17.9531 16.7399C17.8325 16.8605 17.669 16.9282 17.4985 16.9282ZM26.5259 19.5001H14.9268C14.7563 19.5001 14.5928 19.5678 14.4722 19.6884C14.3516 19.809 14.2839 19.9725 14.2839 20.143C14.2839 20.3135 14.3516 20.477 14.4722 20.5976C14.5928 20.7182 14.7563 20.7859 14.9268 20.7859H26.5259C26.6964 20.7859 26.8599 20.7182 26.9805 20.5976C27.101 20.477 27.1688 20.3135 27.1688 20.143C27.1688 19.9725 27.101 19.809 26.9805 19.6884C26.8599 19.5678 26.6964 19.5001 26.5259 19.5001ZM16.2127 24.6436H4.64035C4.46984 24.6436 4.30632 24.5759 4.18575 24.4553C4.06518 24.3347 3.99745 24.1712 3.99745 24.0007C3.99745 23.8302 4.06518 23.6667 4.18575 23.5461C4.30632 23.4255 4.46984 23.3578 4.64035 23.3578H16.2127C16.3832 23.3578 16.5467 23.4255 16.6673 23.5461C16.7878 23.6667 16.8556 23.8302 16.8556 24.0007C16.8556 24.1712 16.7878 24.3347 16.6673 24.4553C16.5467 24.5759 16.3832 24.6436 16.2127 24.6436ZM4.64035 13.0712H8.49779C8.6683 13.0712 8.83182 13.0034 8.95239 12.8829C9.07296 12.7623 9.1407 12.5988 9.1407 12.4282C9.1407 12.2577 9.07296 12.0942 8.95239 11.9736C8.83182 11.8531 8.6683 11.7853 8.49779 11.7853H4.64035C4.46984 11.7853 4.30632 11.8531 4.18575 11.9736C4.06518 12.0942 3.99745 12.2577 3.99745 12.4282C3.99745 12.5988 4.06518 12.7623 4.18575 12.8829C4.30632 13.0034 4.46984 13.0712 4.64035 13.0712ZM12.3552 20.7859H4.64035C4.46984 20.7859 4.30632 20.7182 4.18575 20.5976C4.06518 20.477 3.99745 20.3135 3.99745 20.143C3.99745 19.9725 4.06518 19.809 4.18575 19.6884C4.30632 19.5678 4.46984 19.5001 4.64035 19.5001H12.3552C12.5257 19.5001 12.6893 19.5678 12.8098 19.6884C12.9304 19.809 12.9981 19.9725 12.9981 20.143C12.9981 20.3135 12.9304 20.477 12.8098 20.5976C12.6893 20.7182 12.5257 20.7859 12.3552 20.7859ZM4.64035 28.5007H8.49779C8.6683 28.5007 8.83182 28.4329 8.95239 28.3124C9.07296 28.1918 9.1407 28.0283 9.1407 27.8578C9.1407 27.6873 9.07296 27.5237 8.95239 27.4032C8.83182 27.2826 8.6683 27.2149 8.49779 27.2149H4.64035C4.46984 27.2149 4.30632 27.2826 4.18575 27.4032C4.06518 27.5237 3.99745 27.6873 3.99745 27.8578C3.99745 28.0283 4.06518 28.1918 4.18575 28.3124C4.30632 28.4329 4.46984 28.5007 4.64035 28.5007ZM12.3552 9.21346H4.64035C4.46984 9.21346 4.30632 9.14573 4.18575 9.02516C4.06518 8.90459 3.99745 8.74107 3.99745 8.57056C3.99745 8.40005 4.06518 8.23652 4.18575 8.11595C4.30632 7.99538 4.46984 7.92765 4.64035 7.92765H12.3552C12.5257 7.92765 12.6893 7.99538 12.8098 8.11595C12.9304 8.23652 12.9981 8.40005 12.9981 8.57056C12.9981 8.74107 12.9304 8.90459 12.8098 9.02516C12.6893 9.14573 12.5257 9.21346 12.3552 9.21346ZM19.454 27.8578C19.454 27.6873 19.3862 27.5237 19.2656 27.4032C19.1451 27.2826 18.9816 27.2149 18.811 27.2149H11.0694C10.8989 27.2149 10.7354 27.2826 10.6148 27.4032C10.4943 27.5237 10.4265 27.6873 10.4265 27.8578C10.4265 28.0283 10.4943 28.1918 10.6148 28.3124C10.7354 28.4329 10.8989 28.5007 11.0694 28.5007H18.811C18.9816 28.5007 19.1451 28.4329 19.2656 28.3124C19.3862 28.1918 19.454 28.0283 19.454 27.8578ZM18.811 23.3578H22.6685C22.839 23.3578 23.0025 23.4255 23.1231 23.5461C23.2436 23.6667 23.3114 23.8302 23.3114 24.0007C23.3114 24.1712 23.2436 24.3347 23.1231 24.4553C23.0025 24.5759 22.839 24.6436 22.6685 24.6436H18.811C18.6405 24.6436 18.477 24.5759 18.3564 24.4553C18.2358 24.3347 18.1681 24.1712 18.1681 24.0007C18.1681 23.8302 18.2358 23.6667 18.3564 23.5461C18.477 23.4255 18.6405 23.3578 18.811 23.3578Z" fill="#8971C9"/>
</svg>
