<svg width="33" height="33" viewBox="0 0 33 33" fill="none" xmlns="http://www.w3.org/2000/svg">
<path d="M32.2949 19.8087L28.7652 13.5256C28.9961 12.9675 29.1243 12.3566 29.1243 11.7161C29.1243 9.30895 27.324 7.31569 24.9994 7.00863V4.49994C24.9994 2.29438 23.2051 0.5 20.9995 0.5H4.37488C2.16931 0.500063 0.375 2.29438 0.375 4.49994C0.375 4.84507 0.654875 5.12494 1 5.12494H2.74994V7.31238C2.74994 7.65751 3.02982 7.93738 3.37494 7.93738C3.72007 7.93738 3.99994 7.65751 3.99994 7.31238V5.12494H17.6246C17.9698 5.12494 18.2496 4.84507 18.2496 4.49994C18.2496 2.98363 19.4833 1.75 20.9996 1.75C22.5159 1.75 23.7495 2.98356 23.7495 4.49994V7.00863C21.425 7.31576 19.6246 9.30901 19.6246 11.7161C19.6246 12.3971 19.7698 13.0445 20.0291 13.6306L16.4658 19.8023C16.3386 20.0225 16.3576 20.2978 16.5137 20.4985C16.6698 20.6993 16.9318 20.7855 17.1766 20.7164L19.5233 20.0549L20.1238 22.418C20.1863 22.6638 20.391 22.8474 20.6421 22.8828C20.6715 22.887 20.7007 22.889 20.7297 22.889C20.9494 22.889 21.1557 22.7731 21.2689 22.5798L23.7496 18.3421V28.4994C23.7496 29.564 24.1684 30.5319 24.849 31.2493H6.74988C5.23357 31.2493 3.99994 30.0157 3.99994 28.4994V12.8123C3.99994 12.4671 3.72007 12.1873 3.37494 12.1873C3.02982 12.1873 2.74994 12.4671 2.74994 12.8123V28.4994C2.74994 30.705 4.54425 32.4993 6.74988 32.4993C6.74988 32.4993 27.6534 32.4993 27.7494 32.4993C29.955 32.4993 31.7493 30.705 31.7493 28.4994C31.7493 28.1543 31.4695 27.8744 31.1243 27.8744H24.9995V18.2691L27.4863 22.5765C27.599 22.7716 27.8064 22.8891 28.0274 22.889C28.0558 22.889 28.0845 22.8871 28.1132 22.8831C28.365 22.8483 28.5707 22.6643 28.6333 22.418L29.2338 20.0549L31.5805 20.7164C31.824 20.7851 32.0848 20.7001 32.2411 20.5015C32.3975 20.3026 32.4188 20.0292 32.2949 19.8087ZM17.0488 3.87494H1.69663C1.98031 2.65863 3.07344 1.75 4.37494 1.75H18.099C17.5544 2.32413 17.1775 3.05863 17.0488 3.87494ZM30.4277 29.1244C30.144 30.3407 29.0509 31.2493 27.7494 31.2493C26.448 31.2493 25.3548 30.3407 25.0711 29.1244H30.4277ZM20.9599 20.6332L20.5767 19.1254C20.5351 18.962 20.4295 18.8223 20.2835 18.7381C20.1375 18.6538 19.9636 18.6321 19.8014 18.6778L18.3166 19.0963L20.7848 14.8214C21.4645 15.606 22.3956 16.1666 23.4524 16.3754L20.9599 20.6332ZM24.3745 15.216C22.4446 15.216 20.8745 13.646 20.8745 11.7161C20.8745 9.7862 22.4445 8.21613 24.3745 8.21613C26.3043 8.21613 27.8744 9.78613 27.8744 11.7161C27.8744 13.646 26.3043 15.216 24.3745 15.216ZM28.9555 18.6778C28.7933 18.6321 28.6195 18.6538 28.4735 18.7381C28.3275 18.8224 28.2218 18.962 28.1802 19.1254L27.8003 20.6205L25.3441 16.3661C26.4112 16.1439 27.3478 15.5625 28.022 14.7546L30.4649 19.1033L28.9555 18.6778Z" fill="#2E1B70"/>
<path d="M12.6718 17.5625H7.24976C6.90463 17.5625 6.62476 17.8424 6.62476 18.1875C6.62476 18.5326 6.90463 18.8125 7.24976 18.8125H12.6718C13.0169 18.8125 13.2968 18.5326 13.2968 18.1875C13.2968 17.8424 13.0169 17.5625 12.6718 17.5625Z" fill="#2E1B70"/>
<path d="M12.6718 20.625H7.24976C6.90463 20.625 6.62476 20.9049 6.62476 21.25C6.62476 21.5951 6.90463 21.875 7.24976 21.875H12.6718C13.0169 21.875 13.2968 21.5951 13.2968 21.25C13.2968 20.9049 13.0169 20.625 12.6718 20.625Z" fill="#2E1B70"/>
<path d="M10.4596 7.78711H7.24976C6.90463 7.78711 6.62476 8.06698 6.62476 8.41211C6.62476 8.75724 6.90463 9.03711 7.24976 9.03711H10.4596C10.8047 9.03711 11.0846 8.75724 11.0846 8.41211C11.0846 8.06698 10.8047 7.78711 10.4596 7.78711Z" fill="#2E1B70"/>
<path d="M16.3828 14.1875H7.24976C6.90463 14.1875 6.62476 14.4674 6.62476 14.8125C6.62476 15.1576 6.90463 15.4375 7.24976 15.4375H16.3828C16.728 15.4375 17.0078 15.1576 17.0078 14.8125C17.0078 14.4673 16.728 14.1875 16.3828 14.1875Z" fill="#2E1B70"/>
<path d="M19.9788 26.0195H17.0068C16.6617 26.0195 16.3818 26.2994 16.3818 26.6445C16.3818 26.9897 16.6617 27.2695 17.0068 27.2695H19.9788C20.324 27.2695 20.6038 26.9897 20.6038 26.6445C20.6038 26.2994 20.324 26.0195 19.9788 26.0195Z" fill="#2E1B70"/>
</svg>
