<svg width="50" height="49" viewBox="0 0 50 49" fill="none" xmlns="http://www.w3.org/2000/svg">
<path fill-rule="evenodd" clip-rule="evenodd" d="M49.0529 0.280323C48.8649 0.0924585 48.6085 -0.00936951 48.3418 0.0006793C48.1255 0.00843124 42.9733 0.215533 36.8488 2.38024C31.9411 4.11304 27.8505 6.59395 24.6905 9.75406C23.9824 10.4622 23.2933 11.2131 22.634 11.9931C19.5095 10.1539 17.0057 10.7306 15.4229 11.5777C11.7784 13.5281 9.5226 18.8239 9.5226 22.6119C9.52288 22.9989 9.75611 23.3479 10.1137 23.496C10.232 23.5451 10.3565 23.5689 10.4797 23.5689C10.7288 23.5689 10.9735 23.4716 11.1566 23.2886C13.0786 21.3666 15.4493 21.4868 16.2237 21.5886L16.5589 21.9237C15.8993 23.4933 15.3679 25.054 14.9782 26.5719C14.8376 27.1213 14.885 27.7026 15.0941 28.2343C14.1727 28.6589 13.2837 29.2824 12.5097 30.0565C10.0462 32.5201 9.54595 38.5239 9.52585 38.7783C9.50384 39.0575 9.60509 39.3323 9.8031 39.5303C9.98331 39.7104 10.2271 39.8106 10.4797 39.8106C10.5048 39.8106 10.53 39.8097 10.5551 39.8077C10.8095 39.7877 16.8135 39.2874 19.277 36.8239C20.0508 36.0502 20.6742 35.1613 21.0988 34.2401C21.6618 34.4614 22.2411 34.4887 22.7621 34.3552C24.2794 33.9656 25.84 33.4344 27.4097 32.7747L27.7448 33.1099C27.8466 33.8844 27.9668 36.2551 26.0449 38.1769C25.7712 38.4506 25.6893 38.8622 25.8375 39.2198C25.9855 39.5774 26.3345 39.8105 26.7216 39.8105C30.5095 39.8105 35.8052 37.5547 37.7556 33.9103C38.6027 32.3276 39.1794 29.8238 37.3402 26.6992C38.1199 26.0402 38.8709 25.3512 39.5793 24.6428C42.7394 21.4827 45.2202 17.392 46.953 12.4848C49.1178 6.35995 49.3248 1.20769 49.3326 0.991397C49.3421 0.725821 49.2408 0.468284 49.0529 0.280323ZM11.6623 20.5534C12.2568 17.6763 13.9836 14.5191 16.3264 13.2652C17.892 12.4274 19.6033 12.5095 21.4228 13.5055C19.8727 15.5442 18.5251 17.7406 17.4018 20.0599C17.4 20.0588 17.3954 20.054 17.388 20.0465C17.3398 19.9967 17.1733 19.8251 16.8953 19.7624C16.7637 19.7326 14.2315 19.188 11.6623 20.5534ZM17.9236 35.4704C16.6077 36.7863 13.5208 37.4804 11.5697 37.7637C11.8532 35.8125 12.5473 32.7257 13.8631 31.4099C14.6 30.673 15.4545 30.1143 16.3133 29.7996L19.5339 33.0202C19.2192 33.8791 18.6606 34.7335 17.9236 35.4704ZM22.2867 32.501C22.0097 32.572 21.6889 32.4678 21.4504 32.2297L19.576 30.3554L17.1044 27.8837C16.8657 27.6445 16.7616 27.3238 16.8323 27.0473C17.1388 25.8535 17.5397 24.6287 18.0272 23.3921L25.9414 31.3063C24.7046 31.7939 23.48 32.1947 22.2867 32.501ZM36.0683 33.0071C34.8144 35.3498 31.6574 37.0767 28.7803 37.6711C29.6976 35.9449 29.8999 33.7475 29.5647 32.415C29.4986 32.1519 29.3427 32 29.2906 31.9491C29.2814 31.9402 29.2754 31.9343 29.2737 31.9316C31.5929 30.8083 33.7891 29.4607 35.828 27.9106C36.824 29.7303 36.906 31.4418 36.0683 33.0071ZM38.226 23.2893C37.3636 24.1516 36.435 24.9847 35.466 25.7654C33.1364 27.6411 30.5723 29.23 27.8367 30.4948L18.8387 21.497C20.1035 18.7612 21.6924 16.1972 23.568 13.8679C24.3493 12.8981 25.1823 11.9694 26.0443 11.1075C28.8795 8.27219 32.5386 6.01571 36.9229 4.39144L44.9421 12.4106C43.318 16.7948 41.0615 20.4539 38.226 23.2893ZM45.6307 10.3921L38.9414 3.70285C42.5859 2.57088 45.7564 2.14701 47.339 1.99465C47.1865 3.57748 46.7625 6.74803 45.6307 10.3921ZM38.2252 11.1084C36.3552 9.23845 33.3279 9.23835 31.4578 11.1084C29.5926 12.9735 29.5925 16.0092 31.4581 17.8759C33.3239 19.7406 36.3596 19.7414 38.2252 17.8757C40.0951 16.0059 40.0954 12.9785 38.2252 11.1084ZM36.8718 16.5222C35.7527 17.6414 33.9311 17.6414 32.8115 16.5224C31.6922 15.4025 31.6921 13.5809 32.8113 12.4618C33.9332 11.3399 35.7497 11.3397 36.8718 12.4618C37.9937 13.5837 37.9939 15.4002 36.8718 16.5222ZM21.984 39.5303C22.3577 39.1565 22.9637 39.1563 23.3376 39.5301C23.7113 39.9037 23.7114 40.5097 23.3378 40.8835L20.6313 43.5909C20.2577 43.9647 19.6517 43.9647 19.2778 43.5911C18.904 43.2175 18.9039 42.6115 19.2776 42.2377L21.984 39.5303ZM9.80349 25.9962C9.42987 25.6224 8.82397 25.6224 8.45006 25.996L5.74262 28.7025C5.36881 29.0761 5.36871 29.6821 5.74234 30.0559C6.11587 30.4296 6.72176 30.43 7.09577 30.0561L9.80321 27.3497C10.177 26.976 10.1771 26.37 9.80349 25.9962ZM15.2168 40.8834C15.5906 40.5098 16.1967 40.5098 16.5703 40.8835C16.944 41.2572 16.944 41.8632 16.5702 42.237L10.0872 48.7189C9.71342 49.0927 9.10734 49.0925 8.73381 48.7188C8.36009 48.3451 8.36009 47.7391 8.7339 47.3654L15.2168 40.8834ZM8.91399 40.8835C8.54037 40.5098 7.93428 40.5098 7.56056 40.8834L1.07764 47.3654C0.703824 47.7391 0.703824 48.3451 1.07754 48.7188C1.45107 49.0925 2.05716 49.0927 2.43098 48.7189L8.9139 42.237C9.28771 41.8632 9.28771 41.2572 8.91399 40.8835ZM7.09574 32.7628C7.46946 32.389 8.07555 32.389 8.44917 32.7627C8.82299 33.1365 8.82299 33.7424 8.44927 34.1162L1.9673 40.5991C1.59358 40.9729 0.98759 40.9729 0.61387 40.5992C0.240054 40.2254 0.240054 39.6195 0.613774 39.2457L7.09574 32.7628Z" fill="#2F38D3"/>
</svg>
